<svg xmlns="http://www.w3.org/2000/svg" width="36px" height="36px" fill="none" class="text-gray-500 group-hover:text-gray-300" transform="rotate(0) scale(1, 1)"><path fill="#dd1729" fill-rule="evenodd" d="M15.58 2.497a4.29 4.29 0 0 1 4.84 0l12.592 8.576c2.24 1.525 1.26 5.177-1.561 5.177h-.201v10.57c.107.139.202.29.283.45l1.5 3c.914 1.829-.416 3.98-2.46 3.98H5.427c-2.044 0-3.374-2.151-2.46-3.98l1.5-3c.08-.16.176-.311.283-.45V16.25h-.2c-2.822 0-3.802-3.652-1.562-5.177L15.58 2.497ZM31.45 13.75c.093 0 .141-.026.173-.052a.355.355 0 0 0 .11-.175.385.385 0 0 0 .002-.222.3.3 0 0 0-.13-.162L19.012 4.564a1.79 1.79 0 0 0-2.024 0L4.395 13.139a.301.301 0 0 0-.13.162.385.385 0 0 0 .003.222.355.355 0 0 0 .109.175c.032.026.08.052.172.052h26.902Zm-10.2 2.5h-6.5v9.5h6.5v-9.5Zm2.5 9.5h5v-9.5h-5v9.5Zm-16.823 2.5a.252.252 0 0 0-.224.138l-1.5 3a.25.25 0 0 0 .224.362h25.146a.25.25 0 0 0 .224-.362l-1.5-3a.25.25 0 0 0-.224-.138H6.927Zm5.323-2.5v-9.5h-5v9.5h5Z" clip-rule="evenodd"/></svg>